<svg width="94" height="89" fill="none" xmlns="http://www.w3.org/2000/svg"><ellipse opacity=".1" cx="47.333" cy="44.447" rx="46.444" ry="44.132" fill="#8FA632"/><path d="M28.273 28.536c-.447-.876-.06-1.93.861-2.354a1.93 1.93 0 01.933-.17c.293-.62.809-1.15 1.503-1.47 1.57-.721 3.459-.097 4.218 1.395.184.36.284.739.309 1.115.7-.022 1.383.34 1.708.979.44.863.06 1.902-.85 2.32-.825.38-1.801.115-2.303-.584a3.282 3.282 0 01-3.936-.4c-.915.401-2.003.034-2.443-.831z" fill="url(#paint0_linear_1_338)"/><path d="M28.74 25.327c.855 0 1.55-.66 1.55-1.473 0-.813-.695-1.473-1.55-1.473-.857 0-1.55.66-1.55 1.473 0 .814.693 1.473 1.55 1.473z" fill="url(#paint1_linear_1_338)"/><path d="M37.947 37.204H34.21c-.529 0-.958-.407-.958-.91v-5.666c0-.503.43-.91.958-.91h3.738c.53 0 .958.407.958.91v5.666c0 .503-.428.91-.958.91z" fill="url(#paint2_linear_1_338)"/><path d="M36.763 53.36H25.6v13.612h11.163V53.359z" fill="url(#paint3_linear_1_338)"/><path d="M37.227 56.276H25.624c-.475 0-.816-.436-.677-.869l1.15-3.604a.705.705 0 01.679-.477h10.451v4.95z" fill="url(#paint4_linear_1_338)"/><path d="M70.065 53.36H58.902v13.612h11.163V53.359z" fill="url(#paint5_linear_1_338)"/><path d="M70.065 63.405l-7.5-7.127h-3.663v10.693h11.163v-3.566z" fill="url(#paint6_linear_1_338)"/><path d="M58.438 56.276H70.04c.476 0 .816-.436.678-.869l-1.151-3.604a.705.705 0 00-.678-.477H58.438v4.95z" fill="url(#paint7_linear_1_338)"/><path d="M62.571 38.807v28.164H33.097V38.807L47.832 25.08l14.739 13.727z" fill="url(#paint8_linear_1_338)"/><path d="M33.097 38.807v1.614l27.941 26.55h1.533V38.807L47.832 25.08 33.097 38.807z" fill="url(#paint9_linear_1_338)"/><path d="M62.571 47.32v19.65h-9.305L33.097 47.807v-.488h29.474z" fill="url(#paint10_linear_1_338)"/><path d="M58.017 66.971H43.602l-7.923-7.529a1.192 1.192 0 01-.581-1.01v-6.06c0-.664.569-1.205 1.267-1.205h4.598c.446 0 .838.22 1.065.552l-.035.026 16.024 15.226z" fill="url(#paint11_linear_1_338)"/><path d="M40.963 58.93h-4.598a.512.512 0 01-.525-.5v-6.058c0-.276.235-.499.525-.499h4.598c.29 0 .525.223.525.499v6.059a.512.512 0 01-.525.499z" fill="#503837"/><path d="M40.963 59.636h-4.597c-.7 0-1.268-.54-1.268-1.205v-6.06c0-.663.569-1.204 1.268-1.204h4.597c.7 0 1.268.54 1.268 1.205v6.059c0 .664-.569 1.205-1.268 1.205zm-4.38-1.412h4.162v-5.645h-4.161v5.645z" fill="#fff"/><path d="M62.572 53.666v13.305h-.452l-7.924-7.529a1.19 1.19 0 01-.582-1.01v-6.06c0-.664.57-1.205 1.269-1.205h4.596c.447 0 .84.22 1.065.552l.019.014-.013.012 2.023 1.922z" fill="url(#paint12_linear_1_338)"/><path d="M59.48 58.93h-4.598a.512.512 0 01-.525-.5v-6.058c0-.276.235-.499.525-.499h4.598c.29 0 .525.223.525.499v6.059a.512.512 0 01-.525.499z" fill="#503837"/><path d="M59.48 59.636h-4.598c-.699 0-1.268-.54-1.268-1.205v-6.06c0-.663.57-1.204 1.268-1.204h4.598c.699 0 1.268.54 1.268 1.205v6.059c0 .664-.57 1.205-1.268 1.205zm-4.38-1.412h4.161v-5.645h-4.16v5.645z" fill="#fff"/><path d="M44.763 66.971v-15.3c0-.675.576-1.222 1.286-1.222h3.57c.711 0 1.287.547 1.287 1.222v15.3h-6.143z" fill="#816965"/><path d="M51.667 66.971h-1.522V52.088c0-.504-.433-.916-.963-.916h-2.694c-.532 0-.964.41-.964.916V66.97h-1.521V51.13c0-.775.662-1.404 1.479-1.404h4.706c.816 0 1.479.629 1.479 1.405V66.97z" fill="#503837"/><path d="M46.745 56.851c.383 0 .693-.295.693-.659 0-.364-.31-.659-.693-.659-.383 0-.694.295-.694.66 0 .363.31.658.694.658z" fill="#fff"/><path d="M62.572 63.115H33.096v3.856h29.476v-3.856z" fill="#654E48"/><path d="M32.774 65.464c0 .532-.106 1.04-.3 1.507h-8.063a3.921 3.921 0 01-.3-1.507c0-.518.1-1.013.285-1.47.623-1.547 2.2-2.645 4.047-2.645 1.847 0 3.424 1.098 4.046 2.645.184.457.285.952.285 1.47z" fill="url(#paint13_linear_1_338)"/><path d="M35.567 65.878c0 .386-.077.754-.217 1.093H29.5a2.846 2.846 0 01-.01-2.16c.451-1.122 1.595-1.918 2.935-1.918s2.484.796 2.936 1.919c.133.33.206.69.206 1.066z" fill="url(#paint14_linear_1_338)"/><path d="M71.554 65.215c0 .62-.124 1.212-.35 1.756h-9.399a4.575 4.575 0 01-.349-1.756c0-.604.117-1.182.332-1.714.726-1.804 2.564-3.084 4.717-3.084 2.153 0 3.991 1.28 4.717 3.084.215.532.332 1.11.332 1.714z" fill="url(#paint15_linear_1_338)"/><path d="M62.57 42.836v14.927L43.613 39.747a1.205 1.205 0 01-.623-1.041V35.32c0-2.537 2.173-4.6 4.843-4.6 1.446 0 2.745.606 3.634 1.563L62.57 42.836z" fill="url(#paint16_linear_1_338)"/><path d="M60.41 41.384H35.636c-.59 0-1.071.457-1.071 1.018v4.52h.744v-4.52a.32.32 0 01.327-.31h1.482v4.83h.745v-4.83h2.21v4.83h.744v-4.83h2.211v4.83h.744v-4.83h2.211v4.83h.744v-4.83h2.211v4.83h.744v-4.83h2.211v4.83h.744v-4.83h2.211v4.83h.744v-4.83h2.211v4.83h.744v-4.83h1.864c.18 0 .328.139.328.31v4.52h.744v-4.52c0-.561-.48-1.018-1.071-1.018z" fill="#654E48"/><path d="M63.182 46.188v2.267c0 .337-.287.61-.642.61H33.125c-.355 0-.642-.273-.642-.61v-2.267c0-.337.287-.61.642-.61H62.54c.355 0 .642.273.642.61z" fill="url(#paint17_linear_1_338)"/><path d="M67.848 41.263l-19.031-18.09a1.441 1.441 0 00-1.965 0L27.817 41.261a.833.833 0 000 1.221l.81.771a.943.943 0 001.286 0L47.576 26.47a.38.38 0 01.517 0l17.658 16.786a.943.943 0 001.286 0l.81-.771a.833.833 0 000-1.221z" fill="url(#paint18_linear_1_338)"/><path d="M48.818 23.173a1.423 1.423 0 00-.983-.386v3.58c.094 0 .188.035.26.103l17.657 16.785a.943.943 0 001.285 0l.812-.771a.833.833 0 000-1.221l-19.031-18.09z" fill="url(#paint19_linear_1_338)"/><path d="M51.394 39.188H44.27a.496.496 0 01-.508-.483v-3.384c0-2.135 1.822-3.867 4.07-3.867 2.247 0 4.07 1.732 4.07 3.867v3.384a.497.497 0 01-.51.483z" fill="#654E48"/><path d="M47.832 30.72c-2.67 0-4.842 2.064-4.842 4.601v3.384c0 .672.574 1.218 1.281 1.218h7.122c.707 0 1.282-.546 1.282-1.218v-3.384c0-2.537-2.173-4.6-4.843-4.6zm3.27 4.21h-2.497v-2.654c1.316.302 2.326 1.355 2.497 2.654zm-4.043-2.654v2.654h-2.497c.171-1.299 1.181-2.352 2.497-2.654zm-2.524 4.122h2.524v2.056h-2.524v-2.056zm4.07 2.056v-2.056h2.524v2.056h-2.524z" fill="#fff"/><defs><linearGradient id="paint0_linear_1_338" x1="26.48" y1="25.21" x2="44.523" y2="31.816" gradientUnits="userSpaceOnUse"><stop stop-color="#E2EDF2"/><stop offset="1" stop-color="#9FC7E2"/></linearGradient><linearGradient id="paint1_linear_1_338" x1="28.237" y1="23.689" x2="30.893" y2="24.662" gradientUnits="userSpaceOnUse"><stop stop-color="#E2EDF2"/><stop offset="1" stop-color="#9FC7E2"/></linearGradient><linearGradient id="paint2_linear_1_338" x1="34.564" y1="32.023" x2="36.344" y2="33.895" gradientUnits="userSpaceOnUse"><stop stop-color="#816965"/><stop offset="1" stop-color="#654E48"/></linearGradient><linearGradient id="paint3_linear_1_338" x1="31.181" y1="55.084" x2="31.181" y2="67.172" gradientUnits="userSpaceOnUse"><stop stop-color="#FFE7A5"/><stop offset=".966" stop-color="#FFBF5C"/></linearGradient><linearGradient id="paint4_linear_1_338" x1="31.071" y1="51.953" x2="31.071" y2="56.35" gradientUnits="userSpaceOnUse"><stop stop-color="#FF5D00"/><stop offset="1" stop-color="#D54003"/></linearGradient><linearGradient id="paint5_linear_1_338" x1="64.483" y1="55.084" x2="64.483" y2="67.172" gradientUnits="userSpaceOnUse"><stop stop-color="#FFE7A5"/><stop offset=".966" stop-color="#FFBF5C"/></linearGradient><linearGradient id="paint6_linear_1_338" x1="64.222" y1="64.58" x2="53.177" y2="54.221" gradientUnits="userSpaceOnUse"><stop stop-color="#FF5D00" stop-opacity="0"/><stop offset="1" stop-color="#D54003"/></linearGradient><linearGradient id="paint7_linear_1_338" x1="64.593" y1="51.953" x2="64.593" y2="56.35" gradientUnits="userSpaceOnUse"><stop stop-color="#FF5D00"/><stop offset="1" stop-color="#D54003"/></linearGradient><linearGradient id="paint8_linear_1_338" x1="47.834" y1="46.316" x2="47.834" y2="75.971" gradientUnits="userSpaceOnUse"><stop stop-color="#FFE7A5"/><stop offset=".966" stop-color="#FFBF5C"/><stop offset="1" stop-color="#DB9E36"/></linearGradient><linearGradient id="paint9_linear_1_338" x1="44.648" y1="36.588" x2="36.552" y2="28.067" gradientUnits="userSpaceOnUse"><stop stop-color="#FF5D00" stop-opacity="0"/><stop offset="1" stop-color="#D54003"/></linearGradient><linearGradient id="paint10_linear_1_338" x1="48.943" y1="54.107" x2="45.921" y2="34.368" gradientUnits="userSpaceOnUse"><stop stop-color="#FF5D00" stop-opacity="0"/><stop offset="1" stop-color="#D54003"/></linearGradient><linearGradient id="paint11_linear_1_338" x1="44.406" y1="60.858" x2="31.788" y2="47.578" gradientUnits="userSpaceOnUse"><stop stop-color="#FF5D00" stop-opacity="0"/><stop offset="1" stop-color="#D54003"/></linearGradient><linearGradient id="paint12_linear_1_338" x1="60.738" y1="58.782" x2="52.659" y2="50.28" gradientUnits="userSpaceOnUse"><stop stop-color="#FF5D00" stop-opacity="0"/><stop offset="1" stop-color="#D54003"/></linearGradient><linearGradient id="paint13_linear_1_338" x1="26" y1="62.902" x2="31.072" y2="68.239" gradientUnits="userSpaceOnUse"><stop stop-color="#9EB644"/><stop offset="1" stop-color="#738611"/></linearGradient><linearGradient id="paint14_linear_1_338" x1="30.653" y1="64.019" x2="34.332" y2="67.891" gradientUnits="userSpaceOnUse"><stop stop-color="#9EB644"/><stop offset="1" stop-color="#738611"/></linearGradient><linearGradient id="paint15_linear_1_338" x1="63.657" y1="62.228" x2="69.569" y2="68.45" gradientUnits="userSpaceOnUse"><stop stop-color="#9EB644"/><stop offset="1" stop-color="#738611"/></linearGradient><linearGradient id="paint16_linear_1_338" x1="54.604" y1="42.749" x2="41.669" y2="29.136" gradientUnits="userSpaceOnUse"><stop stop-color="#FF5D00" stop-opacity="0"/><stop offset="1" stop-color="#D54003"/></linearGradient><linearGradient id="paint17_linear_1_338" x1="47.832" y1="45.95" x2="47.832" y2="50.576" gradientUnits="userSpaceOnUse"><stop stop-color="#FF5D00"/><stop offset="1" stop-color="#D54003"/></linearGradient><linearGradient id="paint18_linear_1_338" x1="47.832" y1="35.023" x2="47.832" y2="50.729" gradientUnits="userSpaceOnUse"><stop stop-color="#FF5D00"/><stop offset="1" stop-color="#D54003"/></linearGradient><linearGradient id="paint19_linear_1_338" x1="62.049" y1="37.811" x2="52.568" y2="27.834" gradientUnits="userSpaceOnUse"><stop stop-color="#FF5D00" stop-opacity="0"/><stop offset="1" stop-color="#D54003"/></linearGradient></defs></svg>