<svg width="94" height="89" fill="none" xmlns="http://www.w3.org/2000/svg"><ellipse opacity=".08" cx="47" cy="44.447" rx="46.444" ry="44.132" fill="#E64D2E"/><path d="M44.868 22.381c-2.2 0-3.99 1.7-3.99 3.791v1.348l2.66 1.263h2.66l2.66-1.263v-1.348c0-2.09-1.79-3.79-3.99-3.79z" fill="#FF6A4D"/><path d="M48.857 27.52v-1.348c0-2.09-1.79-3.79-3.989-3.79v6.401h1.33l2.66-1.263z" fill="#E64D2E"/><path d="M24.833 60.456c.616 2.884 3.432 5.054 6.649 5.054 3.216 0 6.121-2.17 6.737-5.054l-2.889-1.263h-8.65l-1.847 1.263z" fill="#474F54"/><path d="M31.482 62.983c-2.2 0-3.99-1.7-3.99-3.79s1.79-3.79 3.99-3.79 4.078 1.7 4.078 3.79-1.878 3.79-4.078 3.79z" fill="#F2F9FF"/><path d="M38.22 37.712h-8.068l-2.66 2.528v7.58l2.66 1.264h8.067l3.99-1.263v-6.823l-1.33-.758-2.66-2.528z" fill="#DC780B"/><path d="M27.493 35.185v5.055h13.386l1.33-.654-1.33-.61v-3.79H27.493z" fill="#FABE2C"/><path d="M46.198 60.456H24.833v-1.263c0-4.885 4.256-8.845 9.397-8.845l2.216-1.264h12.411v9.266l-2.66 2.106z" fill="#FF6A4D"/><path d="M24.833 47.82h18.705v2.528H24.833V47.82z" fill="#32393F"/><path d="M52.847 54.214v4.751l-1.33 1.491h-5.32V50.348h-2.659c-1.462 0-2.66-1.137-2.66-2.527v-6.318h7.98v3.79c1.462 0 2.659 1.138 2.659 2.528v5.054l1.33 1.34z" fill="#575F64"/><path d="M52.847 54.214v4.751l-1.33 1.491h-5.32V50.348h-1.329v-8.845h3.99v3.79c1.462 0 2.659 1.138 2.659 2.528v5.054l1.33 1.34z" fill="#474F54"/><path d="M48.857 40.24v-1.264c0-2.09-1.79-3.79-3.989-3.79-2.2 0-3.99 1.7-3.99 3.79v2.527c0 2.094 1.787 3.79 3.99 3.79h10.727c2.203 0 3.99-1.696 3.99-3.79V40.24H48.856z" fill="#FF6A4D"/><path d="M59.584 41.503V40.24H48.857v-1.264c0-2.09-1.79-3.79-3.989-3.79v10.108h10.727c2.203 0 3.99-1.697 3.99-3.79z" fill="#E64D2E"/><path d="M46.198 28.783h-2.66l-2.66 1.264v1.264c0 2.09 1.79 3.874 3.99 3.874s3.99-1.784 3.99-3.875v-1.263l-2.66-1.264z" fill="#FFE1BA"/><path d="M48.857 31.31v-1.263l-2.66-1.264h-1.329v6.402c2.2 0 3.99-1.784 3.99-3.875z" fill="#FFBFAB"/><path d="M44.868 27.52h-3.99v2.527h10.639V27.52h-6.649z" fill="#474F54"/><path d="M44.868 27.52h6.649v2.527h-6.649V27.52z" fill="#32393F"/><path d="M63.248 48.103c-.146-.983-.437-2.92-1.018-6.779l-5.306-2.348v10.108c0 1.994-1.807 3.791-4.078 3.791h-1.33v7.581h16.046l2.66-1.263v-2.527c0-4.043-2.935-7.567-6.974-8.563z" fill="#E64D2E"/><path d="M64.903 42.767h-3.99c-2.2 0-3.989-1.7-3.989-3.791 0-2.09 1.79-3.79 3.99-3.79h3.989v7.58z" fill="#FF6A4D"/><path d="M63.973 52.913l-.387 1.405-2.247-1.05c-2.565.877-4.415 3.19-4.415 5.925 0 3.483 2.983 6.317 6.65 6.317 3.665 0 6.648-2.834 6.648-6.317 0-3.354-2.772-6.079-6.25-6.28z" fill="#32393F"/><path d="M63.573 55.402c-2.2 0-3.989 1.7-3.989 3.79 0 2.091 1.79 3.791 3.99 3.791 2.199 0 3.989-1.7 3.989-3.79s-1.79-3.79-3.99-3.79z" fill="#DFE7F4"/><path d="M64.89 59.014l-.917-6.1c-.135-.008-.263-.039-.4-.039a6.88 6.88 0 00-2.234.394l.918 6.103 2.633-.358z" fill="#C7CFE1"/></svg>