<svg width="94" height="89" fill="none" xmlns="http://www.w3.org/2000/svg"><ellipse opacity=".1" cx="46.666" cy="44.447" rx="46.444" ry="44.132" fill="#DC780B"/><path d="M46.965 18.372v52.151c15.02-.15 27.146-11.768 27.146-26.076 0-14.307-12.126-25.924-27.146-26.076z" fill="#FFBB54"/><path d="M46.965 18.372l-.298-.003c-15.157 0-27.445 11.676-27.445 26.078 0 14.403 12.288 26.078 27.445 26.078.099 0 .198 0 .298-.002 12.579-.18 22.728-11.786 22.728-26.076 0-14.29-10.149-25.895-22.728-26.076z" fill="#FFD45A"/><path d="M57.545 41.32L46.807 54.36H57.84c1.892-2.292 3.02-5.18 3.02-8.317v-1.575c0-1.731-1.492-3.148-3.314-3.148z" fill="#B74147"/><path d="M35.788 41.32c-1.822 0-3.313 1.417-3.313 3.148v1.575c0 3.137 1.127 6.025 3.02 8.316l20.657-1.712c.887-1.952 1.393-4.205 1.393-6.604v-1.574L35.788 41.32z" fill="#FF3C1F"/><path d="M56.153 52.647l-9.346 6.88c4.478-.041 8.46-2.053 11.032-5.168a13.838 13.838 0 00-1.686-1.712z" fill="#FA4087"/><path d="M56.153 52.647c-1.843 4.06-5.333 6.817-9.346 6.88a5.953 5.953 0 01-.14 0c-4.536 0-8.574-2.02-11.172-5.168 2.598-3.146 6.636-5.168 11.172-5.168 3.646 0 6.972 1.307 9.486 3.456z" fill="#FA71A3"/><path d="M54.232 41.32l-1.656 4.723h3.313c.911 0 1.656-.709 1.656-1.575V41.32h-3.313z" fill="#FFF7DF"/><path d="M54.232 41.32v3.148c0 .866-.745 1.575-1.657 1.575h-15.13c-.911 0-1.656-.709-1.656-1.575V41.32h18.443z" fill="#fff"/><path d="M47.495 63.463H45.84c-.458 0-.829-.352-.829-.787 0-.434.371-.787.829-.787h1.656c.458 0 .829.353.829.787 0 .435-.371.787-.829.787z" fill="#FFBB54"/><path d="M55.889 30.301c-.912 0-1.657.709-1.657 1.574v4.723c0 .866.745 1.574 1.657 1.574.91 0 1.656-.708 1.656-1.574v-4.723c0-.865-.745-1.574-1.657-1.574zm-18.444.001c-.911 0-1.656.709-1.656 1.574V36.6c0 .866.745 1.574 1.656 1.574.911 0 1.657-.708 1.657-1.574v-4.723c0-.865-.746-1.574-1.657-1.574z" fill="#474867"/></svg>